<svg id="visual" viewBox="0 0 900 600" width="900" height="600" xmlns="http://www.w3.org/2000/svg" xmlns:xlink="http://www.w3.org/1999/xlink" version="1.1"><rect x="0" y="0" width="900" height="600" fill="#202731"></rect><path d="M0 222L21.5 224.3C43 226.7 86 231.3 128.8 225.7C171.7 220 214.3 204 257.2 203.3C300 202.7 343 217.3 385.8 215.2C428.7 213 471.3 194 514.2 180.2C557 166.3 600 157.7 642.8 158.5C685.7 159.3 728.3 169.7 771.2 173.8C814 178 857 176 878.5 175L900 174L900 0L878.5 0C857 0 814 0 771.2 0C728.3 0 685.7 0 642.8 0C600 0 557 0 514.2 0C471.3 0 428.7 0 385.8 0C343 0 300 0 257.2 0C214.3 0 171.7 0 128.8 0C86 0 43 0 21.5 0L0 0Z" fill="#ff6f61"></path><path d="M0 127L21.5 137.5C43 148 86 169 128.8 167.7C171.7 166.3 214.3 142.7 257.2 132.3C300 122 343 125 385.8 131.3C428.7 137.7 471.3 147.3 514.2 146.5C557 145.7 600 134.3 642.8 132.5C685.7 130.7 728.3 138.3 771.2 148.3C814 158.3 857 170.7 878.5 176.8L900 183L900 0L878.5 0C857 0 814 0 771.2 0C728.3 0 685.7 0 642.8 0C600 0 557 0 514.2 0C471.3 0 428.7 0 385.8 0C343 0 300 0 257.2 0C214.3 0 171.7 0 128.8 0C86 0 43 0 21.5 0L0 0Z" fill="#f76455"></path><path d="M0 87L21.5 96.5C43 106 86 125 128.8 134.3C171.7 143.7 214.3 143.3 257.2 140.7C300 138 343 133 385.8 130C428.7 127 471.3 126 514.2 130.3C557 134.7 600 144.3 642.8 150C685.7 155.7 728.3 157.3 771.2 146.8C814 136.3 857 113.7 878.5 102.3L900 91L900 0L878.5 0C857 0 814 0 771.2 0C728.3 0 685.7 0 642.8 0C600 0 557 0 514.2 0C471.3 0 428.7 0 385.8 0C343 0 300 0 257.2 0C214.3 0 171.7 0 128.8 0C86 0 43 0 21.5 0L0 0Z" fill="#ee5849"></path><path d="M0 66L21.5 71C43 76 86 86 128.8 90.5C171.7 95 214.3 94 257.2 96.8C300 99.7 343 106.3 385.8 107.2C428.7 108 471.3 103 514.2 98.3C557 93.7 600 89.3 642.8 90.3C685.7 91.3 728.3 97.7 771.2 94.8C814 92 857 80 878.5 74L900 68L900 0L878.5 0C857 0 814 0 771.2 0C728.3 0 685.7 0 642.8 0C600 0 557 0 514.2 0C471.3 0 428.7 0 385.8 0C343 0 300 0 257.2 0C214.3 0 171.7 0 128.8 0C86 0 43 0 21.5 0L0 0Z" fill="#e64c3d"></path><path d="M0 32L21.5 38.5C43 45 86 58 128.8 60.5C171.7 63 214.3 55 257.2 49C300 43 343 39 385.8 41.3C428.7 43.7 471.3 52.3 514.2 52.3C557 52.3 600 43.7 642.8 40.5C685.7 37.3 728.3 39.7 771.2 45.7C814 51.7 857 61.3 878.5 66.2L900 71L900 0L878.5 0C857 0 814 0 771.2 0C728.3 0 685.7 0 642.8 0C600 0 557 0 514.2 0C471.3 0 428.7 0 385.8 0C343 0 300 0 257.2 0C214.3 0 171.7 0 128.8 0C86 0 43 0 21.5 0L0 0Z" fill="#dd3f31"></path></svg>