<svg id="visual" viewBox="0 0 900 600" width="900" height="600" xmlns="http://www.w3.org/2000/svg" xmlns:xlink="http://www.w3.org/1999/xlink" version="1.1"><rect x="0" y="0" width="900" height="600" fill="#202731"></rect><defs><linearGradient id="grad1_0" x1="33.3%" y1="0%" x2="100%" y2="100%"><stop offset="20%" stop-color="#ff6f31" stop-opacity="1"></stop><stop offset="80%" stop-color="#ff6f31" stop-opacity="1"></stop></linearGradient></defs><defs><linearGradient id="grad1_1" x1="33.3%" y1="0%" x2="100%" y2="100%"><stop offset="20%" stop-color="#ff6f31" stop-opacity="1"></stop><stop offset="80%" stop-color="#904178" stop-opacity="1"></stop></linearGradient></defs><defs><linearGradient id="grad1_2" x1="33.3%" y1="0%" x2="100%" y2="100%"><stop offset="20%" stop-color="#202731" stop-opacity="1"></stop><stop offset="80%" stop-color="#904178" stop-opacity="1"></stop></linearGradient></defs><defs><linearGradient id="grad2_0" x1="0%" y1="0%" x2="66.7%" y2="100%"><stop offset="20%" stop-color="#ff6f31" stop-opacity="1"></stop><stop offset="80%" stop-color="#ff6f31" stop-opacity="1"></stop></linearGradient></defs><defs><linearGradient id="grad2_1" x1="0%" y1="0%" x2="66.7%" y2="100%"><stop offset="20%" stop-color="#904178" stop-opacity="1"></stop><stop offset="80%" stop-color="#ff6f31" stop-opacity="1"></stop></linearGradient></defs><defs><linearGradient id="grad2_2" x1="0%" y1="0%" x2="66.7%" y2="100%"><stop offset="20%" stop-color="#904178" stop-opacity="1"></stop><stop offset="80%" stop-color="#202731" stop-opacity="1"></stop></linearGradient></defs><g transform="translate(900, 0)"><path d="M0 486.7C-58.3 459.2 -116.6 431.7 -166.8 402.8C-217.1 373.9 -259.3 343.6 -309.7 309.7C-360.1 275.9 -418.8 238.5 -449.7 186.3C-480.6 134.1 -483.7 67 -486.7 0L0 0Z" fill="#463b61"></path><path d="M0 324.5C-38.9 306.2 -77.7 287.8 -111.2 268.5C-144.7 249.3 -172.9 229 -206.5 206.5C-240.1 183.9 -279.2 159 -299.8 124.2C-320.4 89.4 -322.4 44.7 -324.5 0L0 0Z" fill="#d84666"></path><path d="M0 162.2C-19.4 153.1 -38.9 143.9 -55.6 134.3C-72.4 124.6 -86.4 114.5 -103.2 103.2C-120 92 -139.6 79.5 -149.9 62.1C-160.2 44.7 -161.2 22.3 -162.2 0L0 0Z" fill="#ff6f31"></path></g><g transform="translate(0, 600)"><path d="M0 -486.7C51.2 -450.5 102.3 -414.3 164.2 -396.3C226 -378.4 298.6 -378.7 344.2 -344.2C389.8 -309.7 408.5 -240.3 427.8 -177.2C447 -114 466.9 -57 486.7 0L0 0Z" fill="#463b61"></path><path d="M0 -324.5C34.1 -300.4 68.2 -276.2 109.4 -264.2C150.7 -252.3 199 -252.5 229.5 -229.5C259.9 -206.4 272.3 -160.2 285.2 -118.1C298 -76 311.3 -38 324.5 0L0 0Z" fill="#d84666"></path><path d="M0 -162.2C17.1 -150.2 34.1 -138.1 54.7 -132.1C75.3 -126.1 99.5 -126.2 114.7 -114.7C129.9 -103.2 136.2 -80.1 142.6 -59.1C149 -38 155.6 -19 162.2 0L0 0Z" fill="#ff6f31"></path></g></svg>